<mxfile host="app.diagrams.net" agent="Mozilla/5.0 (X11; Ubuntu; Linux x86_64; rv:134.0) Gecko/20100101 Firefox/134.0" version="26.0.10">
  <diagram name="Page-1" id="9f46799a-70d6-7492-0946-bef42562c5a5">
    <mxGraphModel dx="2134" dy="2000" grid="1" gridSize="10" guides="1" tooltips="1" connect="1" arrows="1" fold="1" page="1" pageScale="1" pageWidth="1100" pageHeight="850" background="none" math="0" shadow="0">
      <root>
        <mxCell id="0" />
        <mxCell id="1" parent="0" />
        <mxCell id="qxyERZ4D7mE2W_aF4MiE-60" value="users" style="swimlane;whiteSpace=wrap;html=1;startSize=40;fontStyle=1;fontSize=20;fillColor=#d5e8d4;gradientColor=#97d077;strokeColor=light-dark(#82B366,#FFFFFF);" parent="1" vertex="1">
          <mxGeometry x="40" y="-800" width="480" height="120" as="geometry" />
        </mxCell>
        <mxCell id="qxyERZ4D7mE2W_aF4MiE-61" value="SERIAL" style="shape=partialRectangle;connectable=0;fillColor=none;top=1;left=1;bottom=1;right=1;align=right;spacingLeft=5;fontStyle=0;overflow=hidden;html=1;whiteSpace=wrap;spacingRight=5;fontSize=14;strokeColor=default;verticalAlign=middle;fontFamily=Helvetica;fontColor=default;" parent="qxyERZ4D7mE2W_aF4MiE-60" vertex="1">
          <mxGeometry x="160" y="40" width="160" height="40" as="geometry">
            <mxRectangle width="180" height="30" as="alternateBounds" />
          </mxGeometry>
        </mxCell>
        <mxCell id="qxyERZ4D7mE2W_aF4MiE-62" value="&lt;div align=&quot;left&quot;&gt;id&lt;/div&gt;" style="shape=partialRectangle;connectable=0;fillColor=none;top=1;left=1;bottom=1;right=1;align=left;spacingLeft=5;fontStyle=0;overflow=hidden;html=1;whiteSpace=wrap;spacingRight=5;fontSize=16;strokeColor=default;verticalAlign=middle;fontFamily=Helvetica;fontColor=default;" parent="qxyERZ4D7mE2W_aF4MiE-60" vertex="1">
          <mxGeometry y="40" width="160" height="40" as="geometry">
            <mxRectangle width="180" height="30" as="alternateBounds" />
          </mxGeometry>
        </mxCell>
        <mxCell id="qxyERZ4D7mE2W_aF4MiE-63" value="PK" style="shape=partialRectangle;connectable=0;fillColor=none;top=1;left=1;bottom=1;right=1;align=left;spacingLeft=5;fontStyle=0;overflow=hidden;html=1;whiteSpace=wrap;spacingRight=5;fontSize=12;strokeColor=default;verticalAlign=middle;fontFamily=Helvetica;fontColor=default;" parent="qxyERZ4D7mE2W_aF4MiE-60" vertex="1">
          <mxGeometry x="320" y="40" width="160" height="40" as="geometry">
            <mxRectangle width="180" height="30" as="alternateBounds" />
          </mxGeometry>
        </mxCell>
        <mxCell id="qxyERZ4D7mE2W_aF4MiE-64" value="VARCHAR(32)" style="shape=partialRectangle;connectable=0;fillColor=none;top=1;left=1;bottom=1;right=1;align=right;spacingLeft=5;fontStyle=0;overflow=hidden;html=1;whiteSpace=wrap;spacingRight=5;fontSize=14;strokeColor=default;verticalAlign=middle;fontFamily=Helvetica;fontColor=default;" parent="qxyERZ4D7mE2W_aF4MiE-60" vertex="1">
          <mxGeometry x="160" y="80" width="160" height="40" as="geometry">
            <mxRectangle width="180" height="30" as="alternateBounds" />
          </mxGeometry>
        </mxCell>
        <mxCell id="qxyERZ4D7mE2W_aF4MiE-65" value="login" style="shape=partialRectangle;connectable=0;fillColor=none;top=1;left=1;bottom=1;right=1;align=left;spacingLeft=5;fontStyle=0;overflow=hidden;html=1;whiteSpace=wrap;spacingRight=5;fontSize=16;strokeColor=default;verticalAlign=middle;fontFamily=Helvetica;fontColor=default;" parent="qxyERZ4D7mE2W_aF4MiE-60" vertex="1">
          <mxGeometry y="80" width="160" height="40" as="geometry">
            <mxRectangle width="180" height="30" as="alternateBounds" />
          </mxGeometry>
        </mxCell>
        <mxCell id="qxyERZ4D7mE2W_aF4MiE-66" value="UNIQUE, NOT NULL" style="shape=partialRectangle;connectable=0;fillColor=none;top=1;left=1;bottom=1;right=1;align=left;spacingLeft=5;fontStyle=0;overflow=hidden;html=1;whiteSpace=wrap;spacingRight=5;fontSize=12;strokeColor=default;verticalAlign=middle;fontFamily=Helvetica;fontColor=default;" parent="qxyERZ4D7mE2W_aF4MiE-60" vertex="1">
          <mxGeometry x="320" y="80" width="160" height="40" as="geometry">
            <mxRectangle width="180" height="30" as="alternateBounds" />
          </mxGeometry>
        </mxCell>
        <mxCell id="qxyERZ4D7mE2W_aF4MiE-82" value="events" style="swimlane;whiteSpace=wrap;html=1;startSize=40;fontStyle=1;fontSize=20;fillColor=#dae8fc;gradientColor=#7ea6e0;strokeColor=light-dark(#6C8EBF,#FFFFFF);" parent="1" vertex="1">
          <mxGeometry x="680" y="-800" width="480" height="240" as="geometry" />
        </mxCell>
        <mxCell id="qxyERZ4D7mE2W_aF4MiE-83" value="BIGSERIAL" style="shape=partialRectangle;connectable=0;fillColor=none;top=1;left=1;bottom=1;right=1;align=right;spacingLeft=5;fontStyle=0;overflow=hidden;html=1;whiteSpace=wrap;spacingRight=5;fontSize=14;strokeColor=default;verticalAlign=middle;fontFamily=Helvetica;fontColor=default;" parent="qxyERZ4D7mE2W_aF4MiE-82" vertex="1">
          <mxGeometry x="160" y="40" width="160" height="40" as="geometry">
            <mxRectangle width="180" height="30" as="alternateBounds" />
          </mxGeometry>
        </mxCell>
        <mxCell id="qxyERZ4D7mE2W_aF4MiE-84" value="&lt;div align=&quot;left&quot;&gt;id&lt;/div&gt;" style="shape=partialRectangle;connectable=0;fillColor=none;top=1;left=1;bottom=1;right=1;align=left;spacingLeft=5;fontStyle=0;overflow=hidden;html=1;whiteSpace=wrap;spacingRight=5;fontSize=16;strokeColor=default;verticalAlign=middle;fontFamily=Helvetica;fontColor=default;" parent="qxyERZ4D7mE2W_aF4MiE-82" vertex="1">
          <mxGeometry y="40" width="160" height="40" as="geometry">
            <mxRectangle width="180" height="30" as="alternateBounds" />
          </mxGeometry>
        </mxCell>
        <mxCell id="qxyERZ4D7mE2W_aF4MiE-85" value="PK" style="shape=partialRectangle;connectable=0;fillColor=none;top=1;left=1;bottom=1;right=1;align=left;spacingLeft=5;fontStyle=0;overflow=hidden;html=1;whiteSpace=wrap;spacingRight=5;fontSize=12;strokeColor=default;verticalAlign=middle;fontFamily=Helvetica;fontColor=default;" parent="qxyERZ4D7mE2W_aF4MiE-82" vertex="1">
          <mxGeometry x="320" y="40" width="160" height="40" as="geometry">
            <mxRectangle width="180" height="30" as="alternateBounds" />
          </mxGeometry>
        </mxCell>
        <mxCell id="qxyERZ4D7mE2W_aF4MiE-86" value="VARCHAR(64)" style="shape=partialRectangle;connectable=0;fillColor=none;top=1;left=1;bottom=1;right=1;align=right;spacingLeft=5;fontStyle=0;overflow=hidden;html=1;whiteSpace=wrap;spacingRight=5;fontSize=14;strokeColor=default;verticalAlign=middle;fontFamily=Helvetica;fontColor=default;" parent="qxyERZ4D7mE2W_aF4MiE-82" vertex="1">
          <mxGeometry x="160" y="80" width="160" height="40" as="geometry">
            <mxRectangle width="180" height="30" as="alternateBounds" />
          </mxGeometry>
        </mxCell>
        <mxCell id="qxyERZ4D7mE2W_aF4MiE-87" value="title" style="shape=partialRectangle;connectable=0;fillColor=none;top=1;left=1;bottom=1;right=1;align=left;spacingLeft=5;fontStyle=0;overflow=hidden;html=1;whiteSpace=wrap;spacingRight=5;fontSize=16;strokeColor=default;verticalAlign=middle;fontFamily=Helvetica;fontColor=default;" parent="qxyERZ4D7mE2W_aF4MiE-82" vertex="1">
          <mxGeometry y="80" width="160" height="40" as="geometry">
            <mxRectangle width="180" height="30" as="alternateBounds" />
          </mxGeometry>
        </mxCell>
        <mxCell id="qxyERZ4D7mE2W_aF4MiE-88" value="UNIQUE, NOT NULL" style="shape=partialRectangle;connectable=0;fillColor=none;top=1;left=1;bottom=1;right=1;align=left;spacingLeft=5;fontStyle=0;overflow=hidden;html=1;whiteSpace=wrap;spacingRight=5;fontSize=12;strokeColor=default;verticalAlign=middle;fontFamily=Helvetica;fontColor=default;" parent="qxyERZ4D7mE2W_aF4MiE-82" vertex="1">
          <mxGeometry x="320" y="80" width="160" height="40" as="geometry">
            <mxRectangle width="180" height="30" as="alternateBounds" />
          </mxGeometry>
        </mxCell>
        <mxCell id="qxyERZ4D7mE2W_aF4MiE-89" value="DATE" style="shape=partialRectangle;connectable=0;fillColor=none;top=1;left=1;bottom=1;right=1;align=right;spacingLeft=5;fontStyle=0;overflow=hidden;html=1;whiteSpace=wrap;spacingRight=5;fontSize=14;strokeColor=default;verticalAlign=middle;fontFamily=Helvetica;fontColor=default;" parent="qxyERZ4D7mE2W_aF4MiE-82" vertex="1">
          <mxGeometry x="160" y="120" width="160" height="40" as="geometry">
            <mxRectangle width="180" height="30" as="alternateBounds" />
          </mxGeometry>
        </mxCell>
        <mxCell id="qxyERZ4D7mE2W_aF4MiE-90" value="day" style="shape=partialRectangle;connectable=0;fillColor=none;top=1;left=1;bottom=1;right=1;align=left;spacingLeft=5;fontStyle=0;overflow=hidden;html=1;whiteSpace=wrap;spacingRight=5;fontSize=16;strokeColor=default;verticalAlign=middle;fontFamily=Helvetica;fontColor=default;" parent="qxyERZ4D7mE2W_aF4MiE-82" vertex="1">
          <mxGeometry y="120" width="160" height="40" as="geometry">
            <mxRectangle width="180" height="30" as="alternateBounds" />
          </mxGeometry>
        </mxCell>
        <mxCell id="qxyERZ4D7mE2W_aF4MiE-91" value="NOT NULL" style="shape=partialRectangle;connectable=0;fillColor=none;top=1;left=1;bottom=1;right=1;align=left;spacingLeft=5;fontStyle=0;overflow=hidden;html=1;whiteSpace=wrap;spacingRight=5;fontSize=12;strokeColor=default;verticalAlign=middle;fontFamily=Helvetica;fontColor=default;" parent="qxyERZ4D7mE2W_aF4MiE-82" vertex="1">
          <mxGeometry x="320" y="120" width="160" height="40" as="geometry">
            <mxRectangle width="180" height="30" as="alternateBounds" />
          </mxGeometry>
        </mxCell>
        <mxCell id="qxyERZ4D7mE2W_aF4MiE-116" value="TEXT" style="shape=partialRectangle;connectable=0;fillColor=none;top=1;left=1;bottom=1;right=1;align=right;spacingLeft=5;fontStyle=0;overflow=hidden;html=1;whiteSpace=wrap;spacingRight=5;fontSize=14;strokeColor=default;verticalAlign=middle;fontFamily=Helvetica;fontColor=default;" parent="qxyERZ4D7mE2W_aF4MiE-82" vertex="1">
          <mxGeometry x="160" y="160" width="160" height="40" as="geometry">
            <mxRectangle width="180" height="30" as="alternateBounds" />
          </mxGeometry>
        </mxCell>
        <mxCell id="qxyERZ4D7mE2W_aF4MiE-117" value="description" style="shape=partialRectangle;connectable=0;fillColor=none;top=1;left=1;bottom=1;right=1;align=left;spacingLeft=5;fontStyle=0;overflow=hidden;html=1;whiteSpace=wrap;spacingRight=5;fontSize=16;strokeColor=default;verticalAlign=middle;fontFamily=Helvetica;fontColor=default;" parent="qxyERZ4D7mE2W_aF4MiE-82" vertex="1">
          <mxGeometry y="160" width="160" height="40" as="geometry">
            <mxRectangle width="180" height="30" as="alternateBounds" />
          </mxGeometry>
        </mxCell>
        <mxCell id="qxyERZ4D7mE2W_aF4MiE-118" value="" style="shape=partialRectangle;connectable=0;fillColor=none;top=1;left=1;bottom=1;right=1;align=left;spacingLeft=5;fontStyle=0;overflow=hidden;html=1;whiteSpace=wrap;spacingRight=5;fontSize=12;strokeColor=default;verticalAlign=middle;fontFamily=Helvetica;fontColor=default;" parent="qxyERZ4D7mE2W_aF4MiE-82" vertex="1">
          <mxGeometry x="320" y="160" width="160" height="40" as="geometry">
            <mxRectangle width="180" height="30" as="alternateBounds" />
          </mxGeometry>
        </mxCell>
        <mxCell id="qxyERZ4D7mE2W_aF4MiE-119" value="INTEGER" style="shape=partialRectangle;connectable=0;fillColor=none;top=1;left=1;bottom=1;right=1;align=right;spacingLeft=5;fontStyle=0;overflow=hidden;html=1;whiteSpace=wrap;spacingRight=5;fontSize=14;strokeColor=default;verticalAlign=middle;fontFamily=Helvetica;fontColor=default;" parent="qxyERZ4D7mE2W_aF4MiE-82" vertex="1">
          <mxGeometry x="160" y="200" width="160" height="40" as="geometry">
            <mxRectangle width="180" height="30" as="alternateBounds" />
          </mxGeometry>
        </mxCell>
        <mxCell id="qxyERZ4D7mE2W_aF4MiE-120" value="user_id" style="shape=partialRectangle;connectable=0;fillColor=none;top=1;left=1;bottom=1;right=1;align=left;spacingLeft=5;fontStyle=0;overflow=hidden;html=1;whiteSpace=wrap;spacingRight=5;fontSize=16;strokeColor=default;verticalAlign=middle;fontFamily=Helvetica;fontColor=default;" parent="qxyERZ4D7mE2W_aF4MiE-82" vertex="1">
          <mxGeometry y="200" width="160" height="40" as="geometry">
            <mxRectangle width="180" height="30" as="alternateBounds" />
          </mxGeometry>
        </mxCell>
        <mxCell id="qxyERZ4D7mE2W_aF4MiE-121" value="&lt;div&gt;FK,&lt;/div&gt;&lt;div&gt;ON DELETE CASCADE&lt;/div&gt;" style="shape=partialRectangle;connectable=0;fillColor=none;top=1;left=1;bottom=1;right=1;align=left;spacingLeft=5;fontStyle=0;overflow=hidden;html=1;whiteSpace=wrap;spacingRight=5;fontSize=12;strokeColor=default;verticalAlign=middle;fontFamily=Helvetica;fontColor=default;" parent="qxyERZ4D7mE2W_aF4MiE-82" vertex="1">
          <mxGeometry x="320" y="200" width="160" height="40" as="geometry">
            <mxRectangle width="180" height="30" as="alternateBounds" />
          </mxGeometry>
        </mxCell>
        <mxCell id="qxyERZ4D7mE2W_aF4MiE-125" value="tags" style="swimlane;whiteSpace=wrap;html=1;startSize=40;fontStyle=1;fontSize=20;fillColor=#ffcd28;gradientColor=#ffa500;strokeColor=#d79b00;" parent="1" vertex="1">
          <mxGeometry x="1320" y="-800" width="480" height="80" as="geometry" />
        </mxCell>
        <mxCell id="qxyERZ4D7mE2W_aF4MiE-129" value="VARCHAR(64)" style="shape=partialRectangle;connectable=0;fillColor=none;top=1;left=1;bottom=1;right=1;align=right;spacingLeft=5;fontStyle=0;overflow=hidden;html=1;whiteSpace=wrap;spacingRight=5;fontSize=14;strokeColor=default;verticalAlign=middle;fontFamily=Helvetica;fontColor=default;" parent="qxyERZ4D7mE2W_aF4MiE-125" vertex="1">
          <mxGeometry x="160" y="40" width="160" height="40" as="geometry">
            <mxRectangle width="180" height="30" as="alternateBounds" />
          </mxGeometry>
        </mxCell>
        <mxCell id="qxyERZ4D7mE2W_aF4MiE-130" value="name" style="shape=partialRectangle;connectable=0;fillColor=none;top=1;left=1;bottom=1;right=1;align=left;spacingLeft=5;fontStyle=0;overflow=hidden;html=1;whiteSpace=wrap;spacingRight=5;fontSize=16;strokeColor=default;verticalAlign=middle;fontFamily=Helvetica;fontColor=default;" parent="qxyERZ4D7mE2W_aF4MiE-125" vertex="1">
          <mxGeometry y="40" width="160" height="40" as="geometry">
            <mxRectangle width="180" height="30" as="alternateBounds" />
          </mxGeometry>
        </mxCell>
        <mxCell id="qxyERZ4D7mE2W_aF4MiE-131" value="PK" style="shape=partialRectangle;connectable=0;fillColor=none;top=1;left=1;bottom=1;right=1;align=left;spacingLeft=5;fontStyle=0;overflow=hidden;html=1;whiteSpace=wrap;spacingRight=5;fontSize=12;strokeColor=default;verticalAlign=middle;fontFamily=Helvetica;fontColor=default;" parent="qxyERZ4D7mE2W_aF4MiE-125" vertex="1">
          <mxGeometry x="320" y="40" width="160" height="40" as="geometry">
            <mxRectangle width="180" height="30" as="alternateBounds" />
          </mxGeometry>
        </mxCell>
        <mxCell id="qxyERZ4D7mE2W_aF4MiE-142" value="events_tags" style="swimlane;whiteSpace=wrap;html=1;startSize=40;fontStyle=1;fontSize=20;fillColor=#f5f5f5;gradientColor=#b3b3b3;strokeColor=light-dark(#666666,#FFFFFF);" parent="1" vertex="1">
          <mxGeometry x="1040" y="-400" width="480" height="160" as="geometry" />
        </mxCell>
        <mxCell id="qxyERZ4D7mE2W_aF4MiE-143" value="BIGSERIAL" style="shape=partialRectangle;connectable=0;fillColor=none;top=1;left=1;bottom=1;right=1;align=right;spacingLeft=5;fontStyle=0;overflow=hidden;html=1;whiteSpace=wrap;spacingRight=5;fontSize=14;strokeColor=default;verticalAlign=middle;fontFamily=Helvetica;fontColor=default;" parent="qxyERZ4D7mE2W_aF4MiE-142" vertex="1">
          <mxGeometry x="160" y="40" width="160" height="40" as="geometry">
            <mxRectangle width="180" height="30" as="alternateBounds" />
          </mxGeometry>
        </mxCell>
        <mxCell id="qxyERZ4D7mE2W_aF4MiE-144" value="event_id" style="shape=partialRectangle;connectable=0;fillColor=none;top=1;left=1;bottom=1;right=1;align=left;spacingLeft=5;fontStyle=0;overflow=hidden;html=1;whiteSpace=wrap;spacingRight=5;fontSize=16;strokeColor=default;verticalAlign=middle;fontFamily=Helvetica;fontColor=default;" parent="qxyERZ4D7mE2W_aF4MiE-142" vertex="1">
          <mxGeometry y="40" width="160" height="40" as="geometry">
            <mxRectangle width="180" height="30" as="alternateBounds" />
          </mxGeometry>
        </mxCell>
        <mxCell id="qxyERZ4D7mE2W_aF4MiE-145" value="&lt;div&gt;FK,&lt;/div&gt;&lt;div&gt;ON DELETE CASCADE&lt;br&gt;&lt;/div&gt;" style="shape=partialRectangle;connectable=0;fillColor=none;top=1;left=1;bottom=1;right=1;align=left;spacingLeft=5;fontStyle=0;overflow=hidden;html=1;whiteSpace=wrap;spacingRight=5;fontSize=12;strokeColor=default;verticalAlign=middle;fontFamily=Helvetica;fontColor=default;" parent="qxyERZ4D7mE2W_aF4MiE-142" vertex="1">
          <mxGeometry x="320" y="40" width="160" height="40" as="geometry">
            <mxRectangle width="180" height="30" as="alternateBounds" />
          </mxGeometry>
        </mxCell>
        <mxCell id="qxyERZ4D7mE2W_aF4MiE-146" value="VARCHAR(64)" style="shape=partialRectangle;connectable=0;fillColor=none;top=1;left=1;bottom=1;right=1;align=right;spacingLeft=5;fontStyle=0;overflow=hidden;html=1;whiteSpace=wrap;spacingRight=5;fontSize=14;strokeColor=default;verticalAlign=middle;fontFamily=Helvetica;fontColor=default;" parent="qxyERZ4D7mE2W_aF4MiE-142" vertex="1">
          <mxGeometry x="160" y="80" width="160" height="40" as="geometry">
            <mxRectangle width="180" height="30" as="alternateBounds" />
          </mxGeometry>
        </mxCell>
        <mxCell id="qxyERZ4D7mE2W_aF4MiE-147" value="tag_name" style="shape=partialRectangle;connectable=0;fillColor=none;top=1;left=1;bottom=1;right=1;align=left;spacingLeft=5;fontStyle=0;overflow=hidden;html=1;whiteSpace=wrap;spacingRight=5;fontSize=16;strokeColor=default;verticalAlign=middle;fontFamily=Helvetica;fontColor=default;" parent="qxyERZ4D7mE2W_aF4MiE-142" vertex="1">
          <mxGeometry y="80" width="160" height="40" as="geometry">
            <mxRectangle width="180" height="30" as="alternateBounds" />
          </mxGeometry>
        </mxCell>
        <mxCell id="qxyERZ4D7mE2W_aF4MiE-148" value="&lt;div&gt;FK,&lt;/div&gt;&lt;div&gt;ON DELETE CASCADE&lt;br&gt;&lt;/div&gt;" style="shape=partialRectangle;connectable=0;fillColor=none;top=1;left=1;bottom=1;right=1;align=left;spacingLeft=5;fontStyle=0;overflow=hidden;html=1;whiteSpace=wrap;spacingRight=5;fontSize=12;strokeColor=default;verticalAlign=middle;fontFamily=Helvetica;fontColor=default;" parent="qxyERZ4D7mE2W_aF4MiE-142" vertex="1">
          <mxGeometry x="320" y="80" width="160" height="40" as="geometry">
            <mxRectangle width="180" height="30" as="alternateBounds" />
          </mxGeometry>
        </mxCell>
        <mxCell id="qxyERZ4D7mE2W_aF4MiE-151" value="PRIMARY KEY (event_id, tag_id)" style="shape=partialRectangle;connectable=0;fillColor=none;top=1;left=1;bottom=1;right=1;align=center;spacingLeft=5;fontStyle=0;overflow=hidden;html=1;whiteSpace=wrap;spacingRight=5;fontSize=12;strokeColor=default;verticalAlign=middle;fontFamily=Helvetica;fontColor=default;" parent="qxyERZ4D7mE2W_aF4MiE-142" vertex="1">
          <mxGeometry y="120" width="480" height="40" as="geometry">
            <mxRectangle width="180" height="30" as="alternateBounds" />
          </mxGeometry>
        </mxCell>
        <mxCell id="qxyERZ4D7mE2W_aF4MiE-152" value="" style="edgeStyle=entityRelationEdgeStyle;fontSize=12;html=1;endArrow=ERoneToMany;rounded=0;strokeWidth=1;endSize=20;exitX=1;exitY=0.333;exitDx=0;exitDy=0;exitPerimeter=0;" parent="1" source="qxyERZ4D7mE2W_aF4MiE-60" edge="1">
          <mxGeometry width="100" height="100" relative="1" as="geometry">
            <mxPoint x="530" y="-760" as="sourcePoint" />
            <mxPoint x="680" y="-760" as="targetPoint" />
          </mxGeometry>
        </mxCell>
        <mxCell id="qxyERZ4D7mE2W_aF4MiE-153" value="" style="edgeStyle=orthogonalEdgeStyle;fontSize=12;html=1;endArrow=ERoneToMany;rounded=0;exitX=0.5;exitY=1;exitDx=0;exitDy=0;strokeWidth=1;endSize=20;entryX=0.75;entryY=0;entryDx=0;entryDy=0;" parent="1" source="qxyERZ4D7mE2W_aF4MiE-125" target="qxyERZ4D7mE2W_aF4MiE-142" edge="1">
          <mxGeometry width="100" height="100" relative="1" as="geometry">
            <mxPoint x="1270" y="-560" as="sourcePoint" />
            <mxPoint x="1580" y="-440" as="targetPoint" />
            <Array as="points">
              <mxPoint x="1560" y="-480" />
              <mxPoint x="1400" y="-480" />
            </Array>
          </mxGeometry>
        </mxCell>
        <mxCell id="qxyERZ4D7mE2W_aF4MiE-154" value="" style="edgeStyle=orthogonalEdgeStyle;fontSize=12;html=1;endArrow=ERoneToMany;rounded=0;exitX=0.5;exitY=1;exitDx=0;exitDy=0;strokeWidth=1;endSize=20;entryX=0.25;entryY=0;entryDx=0;entryDy=0;" parent="1" source="qxyERZ4D7mE2W_aF4MiE-82" target="qxyERZ4D7mE2W_aF4MiE-142" edge="1">
          <mxGeometry width="100" height="100" relative="1" as="geometry">
            <mxPoint x="990" y="-490" as="sourcePoint" />
            <mxPoint x="990" y="-420" as="targetPoint" />
          </mxGeometry>
        </mxCell>
        <mxCell id="k0qKDHFTOWTs9ywvlTUG-12" value="&lt;b&gt;&lt;font style=&quot;font-size: 20px;&quot;&gt;Terminal&lt;/font&gt;&lt;/b&gt;" style="swimlane;childLayout=stackLayout;horizontal=1;startSize=50;horizontalStack=0;rounded=1;fontSize=16;fontStyle=1;strokeWidth=1;resizeParent=0;resizeLast=1;shadow=0;dashed=0;align=center;arcSize=4;whiteSpace=wrap;html=1;fillColor=light-dark(#FFFFFF,#242424);swimlaneHead=1;swimlaneBody=1;absoluteArcSize=0;container=1;autosize=0;strokeColor=light-dark(#000000,#BFBFBF);glass=0;swimlaneLine=0;resizable=1;autosizeGrid=1;backgroundOutline=0;overflow=visible;pointerEvents=1;" parent="1" vertex="1">
          <mxGeometry x="-840" y="-800" width="720" height="1040" as="geometry">
            <mxRectangle x="-800" y="-800" width="200" height="50" as="alternateBounds" />
          </mxGeometry>
        </mxCell>
        <mxCell id="k0qKDHFTOWTs9ywvlTUG-13" value="&lt;div&gt;&lt;br&gt;&lt;/div&gt;&lt;div style=&quot;line-height: 140%;&quot;&gt;CREATE TABLE events (&lt;/div&gt;&lt;div style=&quot;line-height: 140%;&quot;&gt;id BIGSERIAL PRIMARY KEY,&lt;/div&gt;&lt;div style=&quot;line-height: 140%;&quot;&gt;title VARCHAR(64) UNIQUE NOT NULL,&lt;/div&gt;&lt;div style=&quot;line-height: 140%;&quot;&gt;day DATE NOT NULL,&lt;/div&gt;&lt;div style=&quot;line-height: 140%;&quot;&gt;description TEXT,&lt;/div&gt;&lt;div style=&quot;line-height: 140%;&quot;&gt;user_id VARCHAR(32) REFERENCES users(id) ON DELETE CASCADE);&lt;/div&gt;&lt;div&gt;&lt;br&gt;&lt;/div&gt;&lt;div style=&quot;line-height: 140%;&quot;&gt;CREATE TABLE events_tags (&lt;/div&gt;&lt;div style=&quot;line-height: 140%;&quot;&gt;event_id INTEGER NOT NULL&amp;nbsp;REFERENCES events(id) ON DELETE CASCADE,&lt;/div&gt;&lt;div style=&quot;line-height: 140%;&quot;&gt;tag_id INTEGER&amp;nbsp;REFERENCES tags(id),&lt;br&gt;&lt;/div&gt;&lt;div style=&quot;line-height: 140%;&quot;&gt;PRIMARY KEY (event_id, tag_id));&lt;/div&gt;&lt;div style=&quot;line-height: 140%;&quot;&gt;&lt;br&gt;&lt;/div&gt;&lt;div style=&quot;line-height: 140%;&quot;&gt;ALTER TABLE events_tags&amp;nbsp;&lt;/div&gt;&lt;div style=&quot;line-height: 140%;&quot;&gt;ADD CONSTRAINT events_tags_tag_id_fkey&amp;nbsp;&lt;/div&gt;&lt;div style=&quot;line-height: 140%;&quot;&gt;FOREIGN KEY (tag_id) REFERENCES tags(id) ON DELETE CASCADE;&lt;/div&gt;&lt;div style=&quot;line-height: 140%;&quot;&gt;&lt;br&gt;&lt;/div&gt;&lt;div style=&quot;line-height: 140%;&quot;&gt;&lt;div style=&quot;line-height: 140%;&quot;&gt;-- Набор тегов у каждого события&lt;/div&gt;&lt;div style=&quot;line-height: 140%;&quot;&gt;SELECT events.title AS event, tags.name AS tag FROM events&lt;/div&gt;&lt;div style=&quot;line-height: 140%;&quot;&gt;JOIN events_tags ON events_tags.event_id = events.id&lt;/div&gt;&lt;div style=&quot;line-height: 140%;&quot;&gt;JOIN tags ON tags.id = events_tags.tag_id&lt;/div&gt;ORDER BY event;&lt;/div&gt;&lt;div style=&quot;line-height: 140%;&quot;&gt;&lt;br&gt;&lt;/div&gt;&lt;div style=&quot;line-height: 140%;&quot;&gt;-- Набор уникальных тегов у каждого пользователья&lt;/div&gt;&lt;div style=&quot;line-height: 140%;&quot;&gt;SELECT users.login, tags.name AS tag FROM users&lt;br&gt;JOIN&amp;nbsp; events ON events.user_id = users.id&lt;/div&gt;&lt;div style=&quot;line-height: 140%;&quot;&gt;JOIN events_tags ON events_tags.event_id = events.id&lt;/div&gt;&lt;div style=&quot;line-height: 140%;&quot;&gt;JOIN tags ON tags.id = events_tags.tag_id&lt;/div&gt;&lt;div style=&quot;line-height: 140%;&quot;&gt;GROUP BY users.login, tags.name&lt;br&gt;&lt;/div&gt;&lt;div style=&quot;line-height: 140%;&quot;&gt;ORDER BY users.login;&lt;/div&gt;&lt;div style=&quot;line-height: 140%;&quot;&gt;&lt;br&gt;&lt;/div&gt;" style="align=left;strokeColor=light-dark(#000000,#BFBFBF);fillColor=light-dark(#FFFFFF,#2B0920);spacingLeft=10;fontSize=16;verticalAlign=top;resizable=0;rotatable=0;part=1;html=1;strokeWidth=1;backgroundOutline=0;overflow=visible;noLabel=0;imageAspect=1;treeMoving=0;" parent="k0qKDHFTOWTs9ywvlTUG-12" vertex="1">
          <mxGeometry y="50" width="720" height="990" as="geometry" />
        </mxCell>
      </root>
    </mxGraphModel>
  </diagram>
</mxfile>
